<?xml version="1.0" encoding="utf-8"?>
<!-- Generator: Adobe Illustrator 26.0.2, SVG Export Plug-In . SVG Version: 6.00 Build 0)  -->
<svg version="1.1" id="圖層_1" xmlns="http://www.w3.org/2000/svg" xmlns:xlink="http://www.w3.org/1999/xlink" x="0px" y="0px"
	 viewBox="0 0 371 375" style="enable-background:new 0 0 371 375;" xml:space="preserve">
<style type="text/css">
	.st0{opacity:0.3;fill:#FFFFFF;}
</style>
<g>
	<g>
		<path class="st0" d="M205.04,490c-31.05-10.95-53.27,8.13-54.87-14.34c-9.35-131.56,27.18-194,17.43-233.45
			c-7.27-29.42-33.38-43.69-62.88-55.21c53.56,3.07,68.02,43.13,69.93,23.06c5.34-56.17,0.34-111.7-28.75-160.16
			c43.52,36.59,53.72,125.53,48.54,209.4c-1.8,29.08,34.39-44.6,103.5-51.85c-53.71,23.61-95.22,63.6-104.13,104.23
			C183.84,357.19,185.09,411.44,205.04,490z M244.28,319.51c-23.48-1.24-49.02,18.21-51.82,34.68
			c17.63-13.04,45.06,20.9,85.64-26.26c-3.84-9.87-52.92-46.89-77.32,0C214.1,319.44,226.65,314.7,244.28,319.51z M313.85,82.53
			c-4.4,9.34-4.68,19.64-0.94,37.1c12.78-15.59,21.82-26.19,6.24-48.95c-16.84,3.12-25.45,18.56-13.41,35.23
			C305.5,97.37,305.62,89,313.85,82.53z M334.56,228.61c-34.36-11.11-60.59-5.14-72.93,6.28c34.33,0,51.49,43.21,95.89,0.59
			c-10.65-20.12-34.25-35.93-66.29-16.57C303.76,217.27,317.25,213.49,334.56,228.61z M148.58,152.53
			c-0.5,26.59,8.96,48.64,21.21,56.89c-7.33-19.83,21.19-49.92-20.54-76.29c-20.92,18.7-22.27,39.9,0.75,63.36
			C146.07,186.11,143.01,167.12,148.58,152.53z M224.07,24.8c-10.52,9.26-19.15,25.62-15.91,37.46c9.04-7.79,39.9-6.55,28.99-43.96
			c-19.02-5.61-35.85,1.87-33.05,25.25C206.06,36.96,215.52,26.06,224.07,24.8z M24.46,126.75c5.93,12.94,15.95,24.25,26.19,24.88
			c-4.96-11.07,1.7-34.02-32.15-39.61c-7.64,16.37-0.78,34.03,18.88,38.69C32.26,146.78,24.13,135.3,24.46,126.75z M151.12,349.72
			c4.64-36.42-30.58-25.42-40.54-28.51c1.72,42.26,20.69,27.83,37.1,42.6c0.34-11.68-1.37-23.01-16.49-32.81
			C142.36,333.57,148.6,341.17,151.12,349.72z M159.35,287.46c15.92-43.54,1.16-59.13-32.01-67.81
			c-32.29,48.11,6.91,75.84,26.46,89.75c1.63-24.29-5.89-46.88-12.76-63.23C151.87,258.21,154.97,270,159.35,287.46z M89.17,246.72
			c3.21,8.59,6.46,18.43,20.17,23.58c5.08-31.37-9.57-29.82-20.48-36.67c-10.29,10.91-12.83,28.04,8.11,34.52
			C92.29,262.62,88.66,253.74,89.17,246.72z M66.1,250.46c-15.38-19.12-35.32-10.42-43.72,6.13c11.18-0.75,15.66,24.11,48.09,6.65
			c-2.18-9.66-20.61-13.2-29.72-12.16C46.76,247.44,57.81,246.86,66.1,250.46z M295.62,298.82c-8.02-1.46-26.95-0.12-29.45,8.32
			c30.47,20.53,35.66-1.26,45.53,0.06c-4.21-14.71-27.95-25.17-38.52-10.42C280.73,294.07,290.49,295.24,295.62,298.82z
			 M141.86,43.66c-0.41-22.03-15.8-27.43-34.79-19.06c-2.2,33.2,22.74,25.71,33.96,30.7c-5.82-14.13-12.18-18.52-19.54-23.69
			C129.14,33.25,135.14,37.04,141.86,43.66z M303.53,197.49c20.98-2.89,32.64-13,26.28-40.15c-48.85-7.73-42.86,28.68-51.05,43.06
			c18.44-6.22,31.91-15.36,40.13-26.78C315.23,185.94,313.53,187.3,303.53,197.49z M66.14,70.22c-0.41,12.49,5.81,28.6,18.11,35.22
			c2.03-14.56,17.46-37.99-16.97-52.59c-18.82,12.38-17.91,37.53,1.94,48.22C62.93,87.43,63.48,78.37,66.14,70.22z M270.62,48.89
			c2.79,11.53,9.3,26.34,21.72,37.06c-1.82-13.83,17.15-45.83-25.07-53.25c-15.15,16.15-5.17,35.79,7.74,39.7
			C270.45,61.27,269.55,59.67,270.62,48.89z M240.77,223.5c34.64-24.04,31.38-71.01-0.68-88.98
			c-19.14,24.1-56.34,47.38-25.02,107.84c20.99-21.42,28.2-53.34,29.79-72.47C249.5,185.53,247.37,203,240.77,223.5z M66,128.41
			c13.68,36.39,40.3,52.51,58.21,55.24c-16.01-19.08,0.2-77.59-70.8-80.15c-8.19,24.92,0.72,62.85,36.5,71.31
			C80.12,165.36,66.8,145.24,66,128.41z M103.21,195.49c-26.28-15.54-56.21,0.79-58.36,27.32c21.2,9.24,48.2,22.77,78.54-16.1
			c-20.43-7.34-42.88-4.11-55.96,0.62C76.33,199.56,87.73,197.34,103.21,195.49z M178.55,27.52c-9.91,15.94-8.63,31.17-1.48,50.85
			c2.73-14.67,35.56-30.84,8.9-62.38c-27.9,5.03-31.68,22.63-20.89,40.06C166.45,48.35,169.91,34.35,178.55,27.52z M335.98,126.49
			c-11.54,1.4-23.38,9.04-27.02,21c9.44,0.1,39.83,1.52,41.05-22.56c-13.27-11.52-33.11-4.81-37.34,7.17
			C316.93,129.76,329.33,124.96,335.98,126.49z M241.33,296.25c21.65-1.14,34.87-16.1,24.39-41.32c-17.5,6.77-44.57-4.26-51.14,41.8
			c17.56-3.47,37.47-11.52,44-25.78C254.61,282.37,246.87,291.12,241.33,296.25z M357.27,195.24c-12.88-0.53-22.14,4.24-29.93,13.12
			c9.27-2.45,27.68,12.18,38.67-11.97c-8.97-14.59-25.82-11.78-30.6-1.39C340.26,193.66,350.93,192.09,357.27,195.24z
			 M287.97,278.31c11.09,2.8,23.07,1.25,22.45-19.02c-24.01-8.11-30.91,6.37-31.8,17.15c8.99-6.42,10.29-10.29,20.26-12.47
			C291.09,268.65,288.28,273.33,287.97,278.31z M128.03,125.73c-6.37,11.2-6.38,21.63-2.06,32.62c2.07-9.36,22.56-19.75,6.13-40.59
			c-17.08,1.29-20.97,19.05-13.93,28.06C119.21,140.89,122.33,129.92,128.03,125.73z M34.82,200.27
			c-10.28-5.01-28.81,4.23-26.5,21.2c23.81,11.71,30-10.79,36.79-17.15c-14.03-0.94-20.89,2.18-27.95,8.83
			C20.06,206.71,26.25,203.07,34.82,200.27z M112.36,288.62c-8.86-20.53-53.12-25.16-71.33,2.97
			c35.66,53.92,64.95,11.89,92.98,18.68c-14.83-17.71-41.87-21.68-67.08-21.23C79.46,283.18,102.92,285.8,112.36,288.62z
			 M224.78,79.64c-25.59,26.11-31.58,38.34-26.56,77.93c69.68-35.1,33.9-66.08,50.2-88.84c-30.03-13.55-65.07,8.51-57.97,46.58
			C197.68,93.78,208.79,85.32,224.78,79.64z M156.75,92.38c-9.87-30.24-26.84-42.37-63.4-30.19c5.75,59.29,49.03,52.05,69.39,54.6
			c-14.33-25.62-23.55-37.71-39.65-43.41C134.96,74.4,143.65,79.41,156.75,92.38z M58.84,166.16
			c-18.83-14.82-34.54-15.31-52.35,7.61c28.4,34.75,52.49,12.1,66.31,5.18c-19.7-10.06-30.53-13.78-43-10.61
			C37.67,164.01,45.21,163.51,58.84,166.16z M292.05,153.39c15.51-30.23,14.81-55.93-24.16-70.29
			c-39.37,37.53,0.39,63.98,8.94,87.24c7.33-28.98,6.71-40.47-0.09-62.52C285.61,115.78,291.13,136.17,292.05,153.39z"/>
	</g>
</g>
</svg>
