<?xml version="1.0" encoding="utf-8"?>
<!-- Generator: Adobe Illustrator 26.0.2, SVG Export Plug-In . SVG Version: 6.00 Build 0)  -->
<svg version="1.1" id="圖層_1" xmlns="http://www.w3.org/2000/svg" xmlns:xlink="http://www.w3.org/1999/xlink" x="0px" y="0px"
	 viewBox="0 0 100 100" style="enable-background:new 0 0 100 100;" xml:space="preserve">
<style type="text/css">
	.st0{opacity:0.3;clip-path:url(#SVGID_00000011030109886621427530000018052545392185665454_);fill:#FFFFFF;}
	.st1{fill:#FFFFFF;}
</style>
<g>
	<g>
		<defs>
			<rect id="SVGID_1_" width="100" height="100"/>
		</defs>
		<clipPath id="SVGID_00000111901372499085810430000004416325480078641316_">
			<use xlink:href="#SVGID_1_"  style="overflow:visible;"/>
		</clipPath>
		<path style="opacity:0.3;clip-path:url(#SVGID_00000111901372499085810430000004416325480078641316_);fill:#FFFFFF;" d="
			M55.53,122.71c-7.76-2.73-13.31,2.03-13.7-3.58c-2.34-32.86,6.79-48.45,4.35-58.31c-1.81-7.35-8.34-10.91-15.7-13.79
			c13.38,0.77,16.99,10.77,17.46,5.76c1.33-14.03,0.08-27.9-7.18-40c10.87,9.14,13.42,31.35,12.12,52.3
			c-0.45,7.26,8.59-11.14,25.85-12.95c-13.41,5.9-23.78,15.88-26.01,26.03C50.24,89.54,50.55,103.09,55.53,122.71z M65.33,80.13
			c-5.87-0.31-12.24,4.55-12.94,8.66c4.4-3.26,11.25,5.22,21.39-6.56c-0.96-2.47-13.22-11.71-19.31,0
			C57.79,80.11,60.93,78.93,65.33,80.13z M82.71,20.94c-1.1,2.33-1.17,4.91-0.23,9.27c3.19-3.89,5.45-6.54,1.56-12.22
			c-4.21,0.78-6.36,4.63-3.35,8.8C80.62,24.65,80.65,22.56,82.71,20.94z M87.88,57.43c-8.58-2.77-15.13-1.28-18.22,1.57
			c8.57,0,12.86,10.79,23.95,0.15c-2.66-5.03-8.55-8.97-16.56-4.14C80.19,54.59,83.56,53.65,87.88,57.43z M41.43,38.43
			c-0.13,6.64,2.24,12.15,5.3,14.21c-1.83-4.95,5.29-12.47-5.13-19.05c-5.22,4.67-5.56,9.96,0.19,15.83
			C40.8,46.81,40.04,42.07,41.43,38.43z M60.28,6.52c-2.63,2.31-4.78,6.4-3.97,9.36c2.26-1.95,9.97-1.64,7.24-10.98
			c-4.75-1.4-8.95,0.47-8.25,6.31C55.78,9.56,58.15,6.84,60.28,6.52z M10.43,31.99c1.48,3.23,3.98,6.06,6.54,6.21
			c-1.24-2.76,0.43-8.5-8.03-9.89c-1.91,4.09-0.19,8.5,4.71,9.66C12.38,36.99,10.35,34.12,10.43,31.99z M42.06,87.67
			c1.16-9.1-7.64-6.35-10.13-7.12c0.43,10.55,5.17,6.95,9.27,10.64c0.09-2.92-0.34-5.75-4.12-8.19
			C39.88,83.64,41.43,85.54,42.06,87.67z M44.12,72.12c3.98-10.87,0.29-14.77-8-16.94c-8.06,12.01,1.73,18.94,6.61,22.42
			c0.41-6.07-1.47-11.71-3.19-15.79C42.25,64.82,43.02,67.76,44.12,72.12z M26.59,61.95c0.8,2.15,1.61,4.6,5.04,5.89
			c1.27-7.84-2.39-7.45-5.12-9.16c-2.57,2.73-3.21,7,2.02,8.62C27.37,65.92,26.46,63.7,26.59,61.95z M20.83,62.88
			c-3.84-4.78-8.82-2.6-10.92,1.53c2.79-0.19,3.91,6.02,12.01,1.66c-0.55-2.41-5.15-3.3-7.42-3.04C16,62.13,18.76,61.98,20.83,62.88
			z M78.15,74.96c-2-0.36-6.73-0.03-7.36,2.08c7.61,5.13,8.91-0.32,11.37,0.01c-1.05-3.67-6.98-6.29-9.62-2.6
			C74.44,73.78,76.87,74.07,78.15,74.96z M39.75,11.23c-0.1-5.5-3.95-6.85-8.69-4.76c-0.55,8.29,5.68,6.42,8.48,7.67
			c-1.45-3.53-3.04-4.63-4.88-5.92C36.57,8.63,38.07,9.58,39.75,11.23z M80.13,49.65c5.24-0.72,8.15-3.25,6.56-10.03
			c-12.2-1.93-10.7,7.16-12.75,10.75c4.61-1.55,7.97-3.84,10.02-6.69C83.05,46.77,82.63,47.11,80.13,49.65z M20.84,17.87
			c-0.1,3.12,1.45,7.14,4.52,8.8c0.51-3.64,4.36-9.49-4.24-13.14c-4.7,3.09-4.47,9.37,0.48,12.04
			C20.04,22.16,20.17,19.9,20.84,17.87z M71.91,12.54c0.7,2.88,2.32,6.58,5.42,9.26c-0.46-3.45,4.28-11.45-6.26-13.3
			c-3.78,4.03-1.29,8.94,1.93,9.92C71.87,15.63,71.64,15.23,71.91,12.54z M64.45,56.15c8.65-6,7.84-17.74-0.17-22.22
			c-4.78,6.02-14.07,11.83-6.25,26.93c5.24-5.35,7.04-13.32,7.44-18.1C66.63,46.67,66.1,51.03,64.45,56.15z M20.8,32.4
			c3.42,9.09,10.07,13.11,14.54,13.8c-4-4.77,0.05-19.38-17.68-20.02c-2.05,6.22,0.18,15.7,9.12,17.81
			C24.33,41.63,21,36.6,20.8,32.4z M30.1,49.15c-6.56-3.88-14.04,0.2-14.58,6.82c5.29,2.31,12.04,5.69,19.62-4.02
			c-5.1-1.83-10.71-1.03-13.98,0.16C23.38,50.17,26.23,49.62,30.1,49.15z M48.91,7.2c-2.47,3.98-2.16,7.79-0.37,12.7
			c0.68-3.66,8.88-7.7,2.22-15.58c-6.97,1.26-7.91,5.65-5.22,10.01C45.89,12.4,46.76,8.91,48.91,7.2z M88.23,31.92
			c-2.88,0.35-5.84,2.26-6.75,5.25c2.36,0.03,9.95,0.38,10.25-5.63c-3.31-2.88-8.27-1.2-9.33,1.79
			C83.48,32.74,86.57,31.54,88.23,31.92z M64.59,74.32C70,74.03,73.3,70.3,70.69,64c-4.37,1.69-11.13-1.06-12.77,10.44
			c4.38-0.87,9.36-2.88,10.99-6.44C67.91,70.85,65.98,73.04,64.59,74.32z M93.55,49.09c-3.22-0.13-5.53,1.06-7.48,3.28
			c2.31-0.61,6.91,3.04,9.66-2.99c-2.24-3.64-6.45-2.94-7.64-0.35C89.3,48.7,91.97,48.31,93.55,49.09z M76.24,69.84
			c2.77,0.7,5.76,0.31,5.61-4.75c-6-2.02-7.72,1.59-7.94,4.28c2.25-1.6,2.57-2.57,5.06-3.11C77.02,67.43,76.32,68.59,76.24,69.84z
			 M36.3,31.73c-1.59,2.8-1.59,5.4-0.52,8.15c0.52-2.34,5.63-4.93,1.53-10.14c-4.27,0.32-5.24,4.76-3.48,7.01
			C34.09,35.52,34.87,32.78,36.3,31.73z M13.02,50.35c-2.57-1.25-7.2,1.06-6.62,5.29c5.95,2.92,7.49-2.69,9.19-4.28
			c-3.5-0.23-5.22,0.54-6.98,2.21C9.33,51.96,10.88,51.05,13.02,50.35z M32.38,72.42c-2.21-5.13-13.27-6.28-17.81,0.74
			c8.91,13.47,16.22,2.97,23.22,4.67c-3.7-4.42-10.46-5.42-16.75-5.3C24.17,71.05,30.02,71.71,32.38,72.42z M60.46,20.22
			c-6.39,6.52-7.89,9.58-6.63,19.46c17.4-8.77,8.47-16.5,12.54-22.19c-7.5-3.39-16.25,2.12-14.48,11.63
			C53.69,23.75,56.47,21.64,60.46,20.22z M43.47,23.4c-2.46-7.55-6.7-10.58-15.83-7.54c1.44,14.81,12.25,13,17.33,13.64
			c-3.58-6.4-5.88-9.42-9.9-10.84C38.03,18.91,40.2,20.16,43.47,23.4z M19.02,41.83c-4.7-3.7-8.63-3.83-13.07,1.9
			c7.09,8.68,13.11,3.02,16.56,1.29c-4.92-2.51-7.62-3.44-10.74-2.65C13.73,41.29,15.61,41.17,19.02,41.83z M77.26,38.64
			c3.87-7.55,3.7-13.97-6.03-17.56c-9.83,9.37,0.1,15.98,2.23,21.79c1.83-7.24,1.68-10.11-0.02-15.61
			C75.65,29.25,77.03,34.34,77.26,38.64z"/>
	</g>
	<g>
		<path class="st1" d="M7.05,64.76h2V48.27h-2v-0.44h7.75c2.72,0,7.11,0.44,7.11,4.07c0,2.99-3.31,3.97-5.8,4.15v0.05
			c3.63,0.32,5.41,1.73,5.46,4.37c0.05,3.88,0.4,4.25,1.38,4.25c0.25,0,0.62-0.15,0.89-0.32l0.17,0.37
			C23.14,65.4,21.93,65.6,21,65.6c-2.64,0-3.28-1.88-3.28-4.59c0-3.97-0.96-4.57-3.51-4.62H12.9v8.37h2.07v0.44H7.05V64.76z
			 M12.9,55.95h1.38c2.84-0.15,3.56-1.23,3.48-4.32c0-3.06-0.96-3.36-3.06-3.36h-1.8V55.95z"/>
		<path class="st1" d="M35.2,63.23c0,0.76,0.12,1.23,0.57,1.23c0.59,0,0.86-0.74,0.86-1.38h0.44c0,1.46-1.04,2.42-2.64,2.42
			c-1.11,0-2.02-0.52-2.47-1.56c-0.64,1.18-2.35,1.56-3.31,1.56c-1.9,0-3.83-0.86-3.83-3.01c0-2.57,2.44-3.16,4.69-3.33l2.42-0.2
			v-2.07c0-1.48-0.25-2.39-2.1-2.39c-0.84,0-2.27,0.2-2.25,0.74c0.02,0.42,1.26,0.35,1.26,1.53c0,0.86-0.57,1.48-1.51,1.48
			c-1.11,0-1.6-0.74-1.6-1.6c0-1.38,1.8-2.59,4.27-2.59c2.54,0,5.18,0.69,5.18,3.51V63.23z M31.94,59.4l-1.95,0.2
			c-1.6,0.17-1.75,1.04-1.75,2.35c0,1.28,0.07,2.81,1.75,2.81c1.16,0,1.9-1.18,1.95-2.49V59.4z"/>
		<path class="st1" d="M42.7,64.76h1.7v0.44h-6.81v-0.44h1.7v-9.97h-1.7v-0.44h1.7c0-2.89,1.31-6.91,4.81-6.91
			c1.51,0,2.67,1.01,2.67,2.35c0,1.11-0.69,1.7-1.51,1.7c-0.96,0-1.46-0.64-1.46-1.38c0-0.94,0.77-1.21,0.77-1.68
			c0-0.47-0.42-0.54-0.72-0.54c-0.84,0-1.58,0.72-1.58,2.17c0,1.43,0.42,2.79,0.42,4.3h1.88v0.44H42.7V64.76z"/>
		<path class="st1" d="M45.74,54.79v-0.44c2.49,0,4.27-2.69,4.27-5.31h0.44v5.31h2.27v0.44h-2.27v8.39c0,0.81,0.32,1.28,0.96,1.28
			c0.62,0,1.01-0.59,1.31-1.04l0.32,0.17c-0.77,1.28-1.78,1.9-3.28,1.9c-0.69,0-2.72-0.47-2.72-2.81v-7.9H45.74z"/>
		<path class="st1" d="M57.64,59.23v2.07c0,1.68,0.25,3.6,2.54,3.6c1.93,0,3.36-1.43,3.9-3.73h0.44c-0.54,2.44-2.05,4.32-5.09,4.32
			c-3.16,0-5.5-2.4-5.5-5.6c0-3.33,2.52-5.85,5.43-5.85c2.59-0.05,5.06,2.52,5.09,5.18H57.64z M60.75,58.79v-2.12
			c0-1.36-0.37-2.17-1.56-2.17c-0.84,0-1.55,0.52-1.55,2.17v2.12H60.75z"/>
		<path class="st1" d="M65.32,64.76h1.7v-9.97h-1.7v-0.44h1.7c1.01,0,2.84,0,3.36-0.64v2.52h0.05c0.47-1.23,1.68-2.32,3.26-2.32
			c1.16,0,1.95,0.72,1.95,1.9c0,0.94-0.69,1.8-1.88,1.8c-0.96,0-1.68-0.64-1.68-1.6c0-0.62,0.17-1.01,0.59-1.46h-0.1
			c-1.56,0.69-2.15,2.02-2.15,3.93v6.3h2.27v0.44h-7.38V64.76z"/>
		<path class="st1" d="M21.32,75.82h-0.44c-0.4-2.52-2.49-5.9-5.31-5.9c-2.49,0-3.97,2.35-3.97,8.64c0,6,1.09,8.64,3.9,8.64
			c3.18,0,5.04-3.16,5.38-5.16l0.15-0.84h0.37v6.05h-0.37c-0.1-0.37-0.4-1.01-0.91-1.01c-0.79,0-1.9,1.41-4.86,1.41
			c-4.89,0-7.8-4.37-7.8-8.79c0-4.39,3.06-9.38,8.12-9.38c1.78,0,3.46,1.26,4.49,1.26c0.52,0,0.79-0.22,0.81-0.74h0.44V75.82z"/>
		<path class="st1" d="M33.84,85.28c0,0.76,0.12,1.23,0.57,1.23c0.59,0,0.86-0.74,0.86-1.38h0.44c0,1.46-1.04,2.42-2.64,2.42
			c-1.11,0-2.02-0.52-2.47-1.56c-0.64,1.18-2.35,1.56-3.31,1.56c-1.9,0-3.83-0.86-3.83-3.01c0-2.57,2.44-3.16,4.69-3.33l2.42-0.2
			v-2.07c0-1.48-0.25-2.39-2.1-2.39c-0.84,0-2.27,0.2-2.25,0.74c0.02,0.42,1.26,0.35,1.26,1.53c0,0.86-0.57,1.48-1.51,1.48
			c-1.11,0-1.6-0.74-1.6-1.6c0-1.38,1.8-2.59,4.27-2.59c2.54,0,5.18,0.69,5.18,3.51V85.28z M30.58,81.45l-1.95,0.2
			c-1.6,0.17-1.75,1.04-1.75,2.35c0,1.28,0.07,2.81,1.75,2.81c1.16,0,1.9-1.18,1.95-2.49V81.45z"/>
		<path class="st1" d="M36.24,93.35h1.7V76.84h-1.7v-0.44h1.56c1.75,0,3.11-0.03,3.56-0.77V78h0.05c0.67-1.31,1.75-1.9,3.06-1.9
			c3.31,0,5.26,2.77,5.26,5.93c0,3.43-2.74,5.53-5.21,5.53c-1.63,0-2.52-0.69-3.11-1.8h-0.05v7.6h1.88v0.44h-6.99V93.35z
			 M46.01,79.5c0-1.73-0.69-2.81-2-2.81c-1.68,0-2.67,1.6-2.67,2.99v4.32c0,1.43,0.94,2.96,2.57,2.96c1.36,0,2.1-1.04,2.1-3.46V79.5
			z"/>
		<path class="st1" d="M51.27,86.81h1.7v-9.97h-1.7v-0.44h1.75c1.01,0,2.84,0,3.36-0.64v11.06h1.7v0.44h-6.81V86.81z M54.68,69.97
			c1.11,0,2,0.89,2,2c0,1.11-0.89,2-2,2c-1.11,0-2-0.89-2-2C52.68,70.86,53.57,69.97,54.68,69.97z"/>
		<path class="st1" d="M59.1,76.84v-0.44c2.49,0,4.27-2.69,4.27-5.31h0.44v5.31h2.27v0.44h-2.27v8.39c0,0.81,0.32,1.28,0.96,1.28
			c0.62,0,1.01-0.59,1.31-1.04l0.32,0.17c-0.77,1.28-1.78,1.9-3.28,1.9c-0.69,0-2.72-0.47-2.72-2.81v-7.9H59.1z"/>
		<path class="st1" d="M77.67,85.28c0,0.76,0.12,1.23,0.57,1.23c0.59,0,0.86-0.74,0.86-1.38h0.45c0,1.46-1.04,2.42-2.64,2.42
			c-1.11,0-2.02-0.52-2.47-1.56c-0.64,1.18-2.34,1.56-3.31,1.56c-1.9,0-3.83-0.86-3.83-3.01c0-2.57,2.44-3.16,4.69-3.33l2.42-0.2
			v-2.07c0-1.48-0.25-2.39-2.1-2.39c-0.84,0-2.27,0.2-2.25,0.74c0.02,0.42,1.26,0.35,1.26,1.53c0,0.86-0.57,1.48-1.51,1.48
			c-1.11,0-1.61-0.74-1.61-1.6c0-1.38,1.8-2.59,4.27-2.59c2.54,0,5.18,0.69,5.18,3.51V85.28z M74.41,81.45l-1.95,0.2
			c-1.6,0.17-1.75,1.04-1.75,2.35c0,1.28,0.07,2.81,1.75,2.81c1.16,0,1.9-1.18,1.95-2.49V81.45z"/>
		<path class="st1" d="M80.39,86.81h1.7V70.32h-1.7v-0.44h1.56c1.75,0,3.11,0,3.55-0.74v17.68h1.7v0.44h-6.81V86.81z"/>
	</g>
</g>
</svg>
