<?xml version="1.0" encoding="utf-8"?>
<!-- Generator: Adobe Illustrator 26.0.2, SVG Export Plug-In . SVG Version: 6.00 Build 0)  -->
<svg version="1.1" id="圖層_1" xmlns="http://www.w3.org/2000/svg" xmlns:xlink="http://www.w3.org/1999/xlink" x="0px" y="0px"
	 viewBox="0 0 204.8 217" style="enable-background:new 0 0 204.8 217;" xml:space="preserve">
<style type="text/css">
	.st0{opacity:0.3;clip-path:url(#SVGID_00000015327732213254644940000001944462499009357996_);fill:#244183;}
	.st1{fill:#002C74;}
</style>
<g>
	<g>
		<defs>
			<rect id="SVGID_1_" x="-12.8" y="-9.8" width="226.8" height="226.8"/>
		</defs>
		<clipPath id="SVGID_00000057110292003336703850000012102342355534849154_">
			<use xlink:href="#SVGID_1_"  style="overflow:visible;"/>
		</clipPath>
		<path style="opacity:0.3;clip-path:url(#SVGID_00000057110292003336703850000012102342355534849154_);fill:#244183;" d="
			M113.1,268.5c-17.6-6.2-30.2,4.6-31.1-8.1c-5.3-74.5,15.4-109.9,9.9-132.2c-4.1-16.7-18.9-24.7-35.6-31.3
			c30.3,1.7,38.5,24.4,39.6,13.1c3-31.8,0.2-63.3-16.3-90.7c24.6,20.7,30.4,71.1,27.5,118.6c-1,16.5,19.5-25.3,58.6-29.4
			c-30.4,13.4-53.9,36-59,59C101.1,193.2,101.8,224,113.1,268.5z M135.3,171.9c-13.3-0.7-27.8,10.3-29.4,19.6
			c10-7.4,25.5,11.8,48.5-14.9c-2.2-5.6-30-26.6-43.8,0C118.2,171.9,125.4,169.2,135.3,171.9z M174.7,37.7c-2.5,5.3-2.6,11.1-0.5,21
			c7.2-8.8,12.4-14.8,3.5-27.7c-9.5,1.8-14.4,10.5-7.6,20C170,46.1,170.1,41.3,174.7,37.7z M186.5,120.4
			c-19.5-6.3-34.3-2.9-41.3,3.6c19.4,0,29.2,24.5,54.3,0.3c-6-11.4-19.4-20.4-37.5-9.4C169,114,176.7,111.9,186.5,120.4z M81.1,77.3
			c-0.3,15.1,5.1,27.6,12,32.2c-4.2-11.2,12-28.3-11.6-43.2c-11.8,10.6-12.6,22.6,0.4,35.9C79.7,96.3,78,85.6,81.1,77.3z M123.9,5
			c-6,5.2-10.8,14.5-9,21.2c5.1-4.4,22.6-3.7,16.4-24.9c-10.8-3.2-20.3,1.1-18.7,14.3C113.7,11.9,119,5.7,123.9,5z M10.8,62.7
			c3.4,7.3,9,13.7,14.8,14.1c-2.8-6.3,1-19.3-18.2-22.4C3.1,63.7,7,73.7,18.2,76.3C15.3,74.1,10.6,67.6,10.8,62.7z M82.6,189
			c2.6-20.6-17.3-14.4-23-16.2c1,23.9,11.7,15.8,21,24.1c0.2-6.6-0.8-13-9.3-18.6C77.6,179.9,81.1,184.2,82.6,189z M87.2,153.8
			c9-24.7,0.7-33.5-18.1-38.4c-18.3,27.2,3.9,43,15,50.8c0.9-13.8-3.3-26.6-7.2-35.8C83,137.2,84.8,143.9,87.2,153.8z M47.5,130.7
			c1.8,4.9,3.7,10.4,11.4,13.4c2.9-17.8-5.4-16.9-11.6-20.8c-5.8,6.2-7.3,15.9,4.6,19.6C49.3,139.7,47.2,134.7,47.5,130.7z
			 M34.4,132.8c-8.7-10.8-20-5.9-24.8,3.5c6.3-0.4,8.9,13.7,27.2,3.8c-1.2-5.5-11.7-7.5-16.8-6.9C23.5,131.1,29.7,130.8,34.4,132.8z
			 M164.4,160.2c-4.5-0.8-15.3-0.1-16.7,4.7c17.3,11.6,20.2-0.7,25.8,0c-2.4-8.3-15.8-14.3-21.8-5.9
			C156,157.5,161.5,158.2,164.4,160.2z M77.3,15.7C77.1,3.2,68.4,0.1,57.6,4.9c-1.2,18.8,12.9,14.6,19.2,17.4
			c-3.3-8-6.9-10.5-11.1-13.4C70.1,9.8,73.5,11.9,77.3,15.7z M168.9,102.8c11.9-1.6,18.5-7.4,14.9-22.7
			c-27.7-4.4-24.3,16.2-28.9,24.4c10.4-3.5,18.1-8.7,22.7-15.2C175.5,96.2,174.6,97,168.9,102.8z M34.4,30.7
			c-0.2,7.1,3.3,16.2,10.3,19.9c1.2-8.2,9.9-21.5-9.6-29.8c-10.7,7-10.1,21.3,1.1,27.3C32.6,40.5,32.9,35.3,34.4,30.7z M150.3,18.6
			c1.6,6.5,5.3,14.9,12.3,21c-1-7.8,9.7-26-14.2-30.2c-8.6,9.1-2.9,20.3,4.4,22.5C150.2,25.6,149.7,24.7,150.3,18.6z M133.4,117.5
			c19.6-13.6,17.8-40.2-0.4-50.4c-10.8,13.7-31.9,26.8-14.2,61.1c11.9-12.1,16-30.2,16.9-41C138.3,96,137.1,105.9,133.4,117.5z
			 M34.4,63.7c7.8,20.6,22.8,29.7,33,31.3C58.3,84.1,67.4,51,27.2,49.6C22.6,63.7,27.6,85.2,47.9,90C42.4,84.6,34.8,73.2,34.4,63.7z
			 M55.4,101.7c-14.9-8.8-31.8,0.4-33.1,15.5c12,5.2,27.3,12.9,44.5-9.1c-11.6-4.2-24.3-2.3-31.7,0.4
			C40.2,104,46.7,102.7,55.4,101.7z M98.1,6.5c-5.6,9-4.9,17.7-0.8,28.8c1.5-8.3,20.1-17.5,5-35.3C86.5,2.8,84.4,12.8,90.5,22.7
			C91.3,18.3,93.2,10.4,98.1,6.5z M187.3,62.6c-6.5,0.8-13.2,5.1-15.3,11.9c5.3,0.1,22.6,0.9,23.3-12.8c-7.5-6.5-18.8-2.7-21.1,4.1
			C176.5,64.4,183.5,61.7,187.3,62.6z M133.7,158.7c12.3-0.6,19.8-9.1,13.8-23.4c-9.9,3.8-25.2-2.4-29,23.7
			c9.9-2,21.2-6.5,24.9-14.6C141.2,150.9,136.8,155.8,133.7,158.7z M199.3,101.5c-7.3-0.3-12.5,2.4-17,7.4
			c5.2-1.4,15.7,6.9,21.9-6.8c-5.1-8.3-14.6-6.7-17.3-0.8C189.7,100.6,195.7,99.7,199.3,101.5z M160.1,148.6
			c6.3,1.6,13.1,0.7,12.7-10.8c-13.6-4.6-17.5,3.6-18,9.7c5.1-3.6,5.8-5.8,11.5-7.1C161.8,143.1,160.3,145.7,160.1,148.6z
			 M69.5,62.1c-3.6,6.3-3.6,12.2-1.2,18.5c1.2-5.3,12.8-11.2,3.5-23c-9.7,0.7-11.9,10.8-7.9,15.9C64.5,70.7,66.3,64.5,69.5,62.1z
			 M16.7,104.4c-5.8-2.8-16.3,2.4-15,12c13.5,6.6,17-6.1,20.8-9.7c-7.9-0.5-11.8,1.2-15.8,5C8.3,108,11.9,106,16.7,104.4z
			 M60.6,154.4c-5-11.6-30.1-14.3-40.4,1.7c20.2,30.5,36.8,6.7,52.7,10.6c-8.4-10-23.7-12.3-38-12C42,151.3,55.3,152.8,60.6,154.4z
			 M124.3,36c-14.5,14.8-17.9,21.7-15,44.1c39.5-19.9,19.2-37.4,28.4-50.3c-17-7.7-36.9,4.8-32.8,26.4
			C108.9,44.1,115.2,39.3,124.3,36z M85.8,43.3c-5.6-17.1-15.2-24-35.9-17.1c3.3,33.6,27.8,29.5,39.3,30.9
			C81,42.6,75.8,35.7,66.7,32.5C73.4,33.1,78.3,35.9,85.8,43.3z M30.3,85c-10.7-8.4-19.6-8.7-29.6,4.3c16.1,19.7,29.7,6.9,37.6,2.9
			c-11.2-5.7-17.3-7.8-24.4-6C18.3,83.8,22.6,83.5,30.3,85z M162.4,77.8c8.8-17.1,8.4-31.7-13.7-39.8c-22.3,21.3,0.2,36.2,5.1,49.4
			c4.2-16.4,3.8-22.9-0.1-35.4C158.7,56.5,161.9,68.1,162.4,77.8z"/>
	</g>
	<g>
		<path class="st1" d="M3.2,137.1h4.5V99.6H3.2v-1h17.6c6.2,0,16.1,1,16.1,9.2c0,6.8-7.5,9-13.2,9.4v0.1c8.2,0.7,12.3,3.9,12.4,9.9
			c0.1,8.8,0.9,9.6,3.1,9.6c0.6,0,1.4-0.3,2-0.7l0.4,0.8c-2,1.5-4.7,1.9-6.8,1.9c-6,0-7.4-4.3-7.4-10.4c0-9-2.2-10.4-8-10.5h-3v19
			h4.7v1h-18V137.1z M16.4,117.1h3.1c6.4-0.3,8.1-2.8,7.9-9.8c0-6.9-2.2-7.6-6.9-7.6h-4.1V117.1z"/>
		<path class="st1" d="M67,133.6c0,1.7,0.3,2.8,1.3,2.8c1.3,0,2-1.7,2-3.1h1c0,3.3-2.4,5.5-6,5.5c-2.5,0-4.6-1.2-5.6-3.5
			c-1.5,2.7-5.3,3.5-7.5,3.5c-4.3,0-8.7-2-8.7-6.8c0-5.8,5.5-7.2,10.6-7.6l5.5-0.4v-4.7c0-3.4-0.6-5.4-4.8-5.4
			c-1.9,0-5.2,0.4-5.1,1.7c0.1,1,2.9,0.8,2.9,3.5c0,2-1.3,3.4-3.4,3.4c-2.5,0-3.6-1.7-3.6-3.6c0-3.1,4.1-5.9,9.7-5.9
			c5.8,0,11.8,1.6,11.8,8V133.6z M59.6,124.9l-4.4,0.4c-3.6,0.4-4,2.4-4,5.3c0,2.9,0.2,6.4,4,6.4c2.6,0,4.3-2.7,4.4-5.7V124.9z"/>
		<path class="st1" d="M84,137.1h3.9v1H72.4v-1h3.9v-22.6h-3.9v-1h3.9c0-6.6,3-15.7,10.9-15.7c3.4,0,6,2.3,6,5.3
			c0,2.5-1.6,3.9-3.4,3.9c-2.2,0-3.3-1.5-3.3-3.1c0-2.1,1.7-2.7,1.7-3.8c0-1.1-1-1.2-1.6-1.2c-1.9,0-3.6,1.6-3.6,4.9
			c0,3.2,1,6.3,1,9.7h4.3v1H84V137.1z"/>
		<path class="st1" d="M90.9,114.4v-1c5.7,0,9.7-6.1,9.7-12h1v12h5.2v1h-5.2v19c0,1.8,0.7,2.9,2.2,2.9c1.4,0,2.3-1.3,3-2.4l0.7,0.4
			c-1.7,2.9-4,4.3-7.4,4.3c-1.6,0-6.2-1.1-6.2-6.4v-17.9H90.9z"/>
		<path class="st1" d="M117.9,124.5v4.7c0,3.8,0.6,8.2,5.8,8.2c4.4,0,7.6-3.2,8.8-8.5h1c-1.2,5.5-4.6,9.8-11.5,9.8
			c-7.2,0-12.5-5.4-12.5-12.7c0-7.6,5.7-13.3,12.3-13.3c5.9-0.1,11.5,5.7,11.5,11.8H117.9z M125,123.5v-4.8c0-3.1-0.8-4.9-3.5-4.9
			c-1.9,0-3.5,1.2-3.5,4.9v4.8H125z"/>
		<path class="st1" d="M135.3,137.1h3.9v-22.6h-3.9v-1h3.9c2.3,0,6.4,0,7.6-1.5v5.7h0.1c1.1-2.8,3.8-5.3,7.4-5.3
			c2.6,0,4.4,1.6,4.4,4.3c0,2.1-1.6,4.1-4.3,4.1c-2.2,0-3.8-1.5-3.8-3.6c0-1.4,0.4-2.3,1.3-3.3h-0.2c-3.5,1.6-4.9,4.6-4.9,8.9v14.3
			h5.2v1h-16.7V137.1z"/>
		<path class="st1" d="M35.5,162.1h-1c-0.9-5.7-5.7-13.4-12-13.4c-5.7,0-9,5.3-9,19.6c0,13.6,2.5,19.6,8.8,19.6
			c7.2,0,11.4-7.2,12.2-11.7l0.3-1.9h0.8v13.7h-0.8c-0.2-0.8-0.9-2.3-2.1-2.3c-1.8,0-4.3,3.2-11,3.2C10.7,189,4.1,179,4.1,169
			c0-10,6.9-21.3,18.4-21.3c4,0,7.8,2.9,10.2,2.9c1.2,0,1.8-0.5,1.8-1.7h1V162.1z"/>
		<path class="st1" d="M63.9,183.6c0,1.7,0.3,2.8,1.3,2.8c1.3,0,2-1.7,2-3.1h1c0,3.3-2.4,5.5-6,5.5c-2.5,0-4.6-1.2-5.6-3.5
			c-1.5,2.7-5.3,3.5-7.5,3.5c-4.3,0-8.7-2-8.7-6.8c0-5.8,5.5-7.2,10.6-7.6l5.5-0.4v-4.7c0-3.4-0.6-5.4-4.8-5.4
			c-1.9,0-5.2,0.4-5.1,1.7c0.1,1,2.9,0.8,2.9,3.5c0,2-1.3,3.4-3.4,3.4c-2.5,0-3.6-1.7-3.6-3.6c0-3.1,4.1-5.9,9.7-5.9
			c5.8,0,11.8,1.6,11.8,8V183.6z M56.5,174.9l-4.4,0.4c-3.6,0.4-4,2.4-4,5.3c0,2.9,0.2,6.4,4,6.4c2.6,0,4.3-2.7,4.4-5.7V174.9z"/>
		<path class="st1" d="M69.4,201.9h3.9v-37.5h-3.9v-1h3.5c4,0,7.1-0.1,8.1-1.7v5.4h0.1c1.5-3,4-4.3,6.9-4.3
			c7.5,0,11.9,6.3,11.9,13.4c0,7.8-6.2,12.5-11.8,12.5c-3.7,0-5.7-1.6-7.1-4.1h-0.1v17.2h4.3v1H69.4V201.9z M91.5,170.5
			c0-3.9-1.6-6.4-4.5-6.4c-3.8,0-6,3.6-6,6.8v9.8c0,3.2,2.1,6.7,5.8,6.7c3.1,0,4.8-2.4,4.8-7.8V170.5z"/>
		<path class="st1" d="M103.5,187.1h3.9v-22.6h-3.9v-1h4c2.3,0,6.4,0,7.6-1.5v25.1h3.9v1h-15.5V187.1z M111.2,148.9
			c2.5,0,4.5,2,4.5,4.5c0,2.5-2,4.5-4.5,4.5c-2.5,0-4.5-2-4.5-4.5C106.7,150.9,108.7,148.9,111.2,148.9z"/>
		<path class="st1" d="M121.2,164.4v-1c5.7,0,9.7-6.1,9.7-12h1v12h5.2v1h-5.2v19c0,1.8,0.7,2.9,2.2,2.9c1.4,0,2.3-1.3,3-2.4l0.7,0.4
			c-1.7,2.9-4,4.3-7.4,4.3c-1.6,0-6.2-1.1-6.2-6.4v-17.9H121.2z"/>
		<path class="st1" d="M163.3,183.6c0,1.7,0.3,2.8,1.3,2.8c1.3,0,2-1.7,2-3.1h1c0,3.3-2.4,5.5-6,5.5c-2.5,0-4.6-1.2-5.6-3.5
			c-1.5,2.7-5.3,3.5-7.5,3.5c-4.3,0-8.7-2-8.7-6.8c0-5.8,5.5-7.2,10.6-7.6l5.5-0.4v-4.7c0-3.4-0.6-5.4-4.8-5.4
			c-1.9,0-5.2,0.4-5.1,1.7c0.1,1,2.9,0.8,2.9,3.5c0,2-1.3,3.4-3.4,3.4c-2.5,0-3.6-1.7-3.6-3.6c0-3.1,4.1-5.9,9.7-5.9
			c5.8,0,11.8,1.6,11.8,8V183.6z M155.9,174.9l-4.4,0.4c-3.6,0.4-4,2.4-4,5.3c0,2.9,0.2,6.4,4,6.4c2.6,0,4.3-2.7,4.4-5.7V174.9z"/>
		<path class="st1" d="M169.5,187.1h3.9v-37.4h-3.9v-1h3.5c4,0,7.1,0,8.1-1.7v40.1h3.9v1h-15.5V187.1z"/>
	</g>
</g>
</svg>
