<?xml version="1.0" encoding="utf-8"?>
<!-- Generator: Adobe Illustrator 26.0.2, SVG Export Plug-In . SVG Version: 6.00 Build 0)  -->
<svg version="1.1" id="圖層_1" xmlns="http://www.w3.org/2000/svg" xmlns:xlink="http://www.w3.org/1999/xlink" x="0px" y="0px"
	 viewBox="0 0 160.32 92.75" style="enable-background:new 0 0 160.32 92.75;" xml:space="preserve">
<style type="text/css">
	.st0{fill:#FFFFFF;}
</style>
<g>
	<g>
		<path class="st0" d="M0,34.67h4v-33H0V0.79h15.51c5.43,0,14.23,0.89,14.23,8.15c0,5.98-6.62,7.95-11.61,8.3v0.1
			c7.26,0.64,10.82,3.46,10.92,8.74c0.1,7.75,0.79,8.5,2.77,8.5c0.49,0,1.23-0.3,1.78-0.64l0.35,0.74
			c-1.73,1.28-4.15,1.68-6.03,1.68c-5.29,0-6.57-3.75-6.57-9.19c0-7.95-1.93-9.14-7.01-9.24h-2.62v16.74h4.15v0.89H0V34.67z
			 M11.71,17.04h2.77c5.68-0.3,7.11-2.47,6.96-8.64c0-6.12-1.93-6.72-6.12-6.72h-3.61V17.04z"/>
		<path class="st0" d="M56.3,31.61c0,1.53,0.25,2.47,1.14,2.47c1.19,0,1.73-1.48,1.73-2.77h0.89c0,2.91-2.07,4.84-5.29,4.84
			c-2.22,0-4.05-1.04-4.94-3.11c-1.28,2.37-4.69,3.11-6.62,3.11c-3.8,0-7.66-1.73-7.66-6.03c0-5.14,4.89-6.32,9.38-6.67l4.84-0.39
			v-4.15c0-2.96-0.49-4.79-4.2-4.79c-1.68,0-4.54,0.4-4.49,1.48c0.05,0.84,2.52,0.69,2.52,3.06c0,1.73-1.14,2.96-3.01,2.96
			c-2.22,0-3.21-1.48-3.21-3.21c0-2.77,3.61-5.19,8.54-5.19c5.09,0,10.37,1.38,10.37,7.01V31.61z M49.78,23.96l-3.9,0.4
			c-3.21,0.35-3.51,2.07-3.51,4.69c0,2.57,0.15,5.63,3.51,5.63c2.32,0,3.8-2.37,3.9-4.99V23.96z"/>
		<path class="st0" d="M71.32,34.67h3.41v0.89H61.09v-0.89h3.41V14.72h-3.41v-0.89h3.41C64.5,8.05,67.12,0,74.13,0
			c3.01,0,5.33,2.02,5.33,4.69c0,2.22-1.38,3.41-3.01,3.41c-1.93,0-2.91-1.28-2.91-2.77c0-1.88,1.53-2.42,1.53-3.36
			s-0.84-1.09-1.43-1.09c-1.68,0-3.16,1.43-3.16,4.35c0,2.87,0.84,5.58,0.84,8.59h3.75v0.89h-3.75V34.67z"/>
		<path class="st0" d="M77.39,14.72v-0.89c4.99,0,8.54-5.38,8.54-10.62h0.89v10.62h4.54v0.89h-4.54v16.79
			c0,1.63,0.64,2.57,1.93,2.57c1.23,0,2.03-1.19,2.62-2.08l0.64,0.35c-1.53,2.57-3.56,3.8-6.57,3.8c-1.38,0-5.43-0.94-5.43-5.63
			V14.72H77.39z"/>
		<path class="st0" d="M101.2,23.61v4.15c0,3.36,0.49,7.21,5.09,7.21c3.85,0,6.72-2.86,7.8-7.46h0.89
			c-1.09,4.89-4.1,8.64-10.17,8.64c-6.32,0-11.01-4.79-11.01-11.21c0-6.67,5.04-11.71,10.87-11.71c5.19-0.1,10.13,5.04,10.17,10.37
			H101.2z M107.42,22.72v-4.25c0-2.72-0.74-4.35-3.11-4.35c-1.68,0-3.11,1.04-3.11,4.35v4.25H107.42z"/>
		<path class="st0" d="M116.56,34.67h3.41V14.72h-3.41v-0.89h3.41c2.03,0,5.68,0,6.72-1.28v5.04h0.1c0.94-2.47,3.36-4.64,6.52-4.64
			c2.32,0,3.9,1.43,3.9,3.8c0,1.88-1.38,3.61-3.75,3.61c-1.93,0-3.36-1.28-3.36-3.21c0-1.23,0.35-2.02,1.19-2.91h-0.2
			c-3.11,1.38-4.3,4.05-4.3,7.85v12.6h4.54v0.89h-14.77V34.67z"/>
		<path class="st0" d="M28.55,56.79h-0.89c-0.79-5.04-4.99-11.8-10.62-11.8c-4.99,0-7.95,4.69-7.95,17.29c0,12,2.17,17.29,7.8,17.29
			c6.37,0,10.08-6.32,10.77-10.32l0.3-1.68h0.74v12.1h-0.74c-0.2-0.74-0.79-2.03-1.83-2.03c-1.58,0-3.8,2.82-9.73,2.82
			c-9.78,0-15.61-8.74-15.61-17.58c0-8.79,6.12-18.77,16.25-18.77c3.56,0,6.92,2.52,8.99,2.52c1.04,0,1.58-0.44,1.63-1.48h0.89
			V56.79z"/>
		<path class="st0" d="M53.59,75.71c0,1.53,0.25,2.47,1.14,2.47c1.19,0,1.73-1.48,1.73-2.77h0.89c0,2.91-2.07,4.84-5.29,4.84
			c-2.22,0-4.05-1.04-4.94-3.11c-1.28,2.37-4.69,3.11-6.62,3.11c-3.8,0-7.66-1.73-7.66-6.03c0-5.14,4.89-6.32,9.38-6.67l4.84-0.39
			v-4.15c0-2.96-0.49-4.79-4.2-4.79c-1.68,0-4.54,0.4-4.49,1.48c0.05,0.84,2.52,0.69,2.52,3.06c0,1.73-1.14,2.96-3.01,2.96
			c-2.22,0-3.21-1.48-3.21-3.21c0-2.77,3.61-5.19,8.54-5.19c5.09,0,10.37,1.38,10.37,7.01V75.71z M47.07,68.05l-3.9,0.4
			c-3.21,0.35-3.51,2.07-3.51,4.69c0,2.57,0.15,5.63,3.51,5.63c2.32,0,3.8-2.37,3.9-4.99V68.05z"/>
		<path class="st0" d="M58.38,91.86h3.41V58.82h-3.41v-0.89h3.11c3.51,0,6.22-0.05,7.11-1.53v4.74h0.1c1.33-2.62,3.51-3.8,6.12-3.8
			c6.62,0,10.52,5.53,10.52,11.85c0,6.87-5.48,11.06-10.42,11.06c-3.26,0-5.04-1.38-6.22-3.61h-0.1v15.21h3.75v0.89H58.38V91.86z
			 M77.94,64.15c0-3.46-1.38-5.63-4-5.63c-3.36,0-5.33,3.21-5.33,5.98v8.64c0,2.86,1.88,5.93,5.14,5.93c2.72,0,4.2-2.07,4.2-6.92
			V64.15z"/>
		<path class="st0" d="M88.46,78.77h3.41V58.82h-3.41v-0.89h3.51c2.02,0,5.68,0,6.72-1.28v22.13h3.41v0.89H88.46V78.77z
			 M95.27,45.08c2.22,0,4,1.78,4,4s-1.78,4-4,4s-4-1.78-4-4S93.05,45.08,95.27,45.08z"/>
		<path class="st0" d="M104.11,58.82v-0.89c4.99,0,8.54-5.38,8.54-10.62h0.89v10.62h4.54v0.89h-4.54v16.79
			c0,1.63,0.64,2.57,1.93,2.57c1.23,0,2.03-1.19,2.62-2.08l0.64,0.35c-1.53,2.57-3.56,3.8-6.57,3.8c-1.38,0-5.43-0.94-5.43-5.63
			V58.82H104.11z"/>
		<path class="st0" d="M141.25,75.71c0,1.53,0.25,2.47,1.14,2.47c1.19,0,1.73-1.48,1.73-2.77h0.89c0,2.91-2.07,4.84-5.29,4.84
			c-2.22,0-4.05-1.04-4.94-3.11c-1.28,2.37-4.69,3.11-6.62,3.11c-3.8,0-7.66-1.73-7.66-6.03c0-5.14,4.89-6.32,9.38-6.67l4.84-0.39
			v-4.15c0-2.96-0.49-4.79-4.2-4.79c-1.68,0-4.54,0.4-4.49,1.48c0.05,0.84,2.52,0.69,2.52,3.06c0,1.73-1.14,2.96-3.01,2.96
			c-2.22,0-3.21-1.48-3.21-3.21c0-2.77,3.61-5.19,8.54-5.19c5.09,0,10.37,1.38,10.37,7.01V75.71z M134.73,68.05l-3.9,0.4
			c-3.21,0.35-3.51,2.07-3.51,4.69c0,2.57,0.15,5.63,3.51,5.63c2.32,0,3.8-2.37,3.9-4.99V68.05z"/>
		<path class="st0" d="M146.68,78.77h3.41v-33h-3.41v-0.89h3.11c3.51,0,6.22,0,7.11-1.48v35.37h3.41v0.89h-13.63V78.77z"/>
	</g>
</g>
</svg>
