<?xml version="1.0" encoding="utf-8"?>
<!-- Generator: Adobe Illustrator 26.2.1, SVG Export Plug-In . SVG Version: 6.00 Build 0)  -->
<svg version="1.1" id="圖層_1" xmlns="http://www.w3.org/2000/svg" xmlns:xlink="http://www.w3.org/1999/xlink" x="0px" y="0px"
	 viewBox="0 0 565.5 249.3" style="enable-background:new 0 0 565.5 249.3;" xml:space="preserve">
<style type="text/css">
	.st0{fill:#FFFFFF;}
	.st1{font-family:'AdobeMingStd-Light-B5pc-H';}
	.st2{font-size:16px;}
	.st3{enable-background:new    ;}
	.st4{font-family:'AdobeSongStd-Light-GBpc-EUC-H';}
	.st5{fill-rule:evenodd;clip-rule:evenodd;fill:#FFFFFF;}
</style>
<g>
	<g>
		<g>
			<text transform="matrix(1 0 0 1 11.5729 50.0331)" class="st0 st1 st2">聆听</text>
		</g>
		<g>
			<text transform="matrix(1 0 0 1 11.5729 76.0331)" class="st0 st1 st2">聆听客户需求</text>
		</g>
		<polygon class="st0" points="95.5,11.8 95.5,12.8 166.5,12.8 166.5,102.3 1,102.3 1,12.8 18.5,12.8 18.5,11.8 0,11.8 0,103.3 
			167.5,103.3 167.5,11.8 		"/>
		<path class="st0" d="M57.8,1.7c-3.7,0-6.8,3-6.8,6.8v10.6c0,2,1.7,3.7,3.7,3.7c1.5,0,2.9-1,3.5-2.4l0.8-2c0.3-0.8,0.7-1.5,1.2-2.2
			l3-3.9c2.2-2.8,1.7-6.9-1.1-9.1c-1.1-0.9-2.5-1.4-4-1.4L57.8,1.7L57.8,1.7z M49.5,8.5c0-4.6,3.7-8.2,8.2-8.2H58c4.4,0,8,3.6,8,8
			c0,1.8-0.6,3.5-1.7,4.9l-3,3.9c-0.4,0.5-0.8,1.1-1,1.8l-0.8,2c-1,2.7-4,4-6.7,3c-2-0.8-3.4-2.7-3.4-4.9L49.5,8.5L49.5,8.5z
			 M57.8,6.2c-1.2,0-2.2,1-2.2,2.2v4c0.2-0.1,0.3-0.2,0.5-0.3c0.5-0.3,0.9-0.7,1.1-1.1c0.2-0.4,0.6-0.5,1-0.3c0.4,0.2,0.5,0.6,0.3,1
			l0,0c-0.4,0.8-1,1.3-1.6,1.7c-0.4,0.3-0.8,0.5-1.3,0.7v3.3c0,0.4-0.3,0.8-0.8,0.8s-0.8-0.3-0.8-0.8v-9c0-2.1,1.7-3.8,3.8-3.8
			s3.8,1.7,3.8,3.8v0.8c0,0.4-0.3,0.8-0.8,0.8s-0.8-0.3-0.8-0.8V8.5C60,7.2,59,6.2,57.8,6.2z"/>
	</g>
	<g>
		<g>
			<text transform="matrix(1 0 0 1 210.5729 50.0331)" class="st3"><tspan x="0" y="0" class="st0 st4 st2">开</tspan><tspan x="16" y="0" class="st0 st1 st2">发</tspan></text>
		</g>
		<g>
			<text transform="matrix(1 0 0 1 210.5729 76.0331)" class="st3"><tspan x="0" y="0" class="st0 st4 st2">开</tspan><tspan x="16" y="0" class="st0 st1 st2">发新的策略及</tspan><tspan x="112" y="0" class="st0 st4 st2">产</tspan><tspan x="128" y="0" class="st0 st1 st2">品</tspan></text>
		</g>
		<polygon class="st0" points="294.5,11.8 294.5,12.8 365.5,12.8 365.5,102.3 200,102.3 200,12.8 217.5,12.8 217.5,11.8 199,11.8 
			199,103.3 366.5,103.3 366.5,11.8 		"/>
		<path class="st5" d="M253.9,3.5c0-1.2,1-2.2,2.2-2.2h1.5c1.2,0,2.2,1,2.2,2.2V5c0,1.2-1,2.2-2.2,2.2v1.5h8.2
			c0.4,0,0.8,0.3,0.8,0.8V11c0,0.4-0.3,0.8-0.8,0.8s-0.8-0.3-0.8-0.8v-0.8h-7.5V11c0,0.4-0.3,0.8-0.8,0.8s-0.8-0.3-0.8-0.8v-0.8
			h-7.5V11c0,0.4-0.3,0.8-0.8,0.8s-0.8-0.3-0.8-0.8V9.5c0-0.4,0.3-0.8,0.8-0.8h8.2V7.2c-1.2,0-2.2-1-2.2-2.2V3.5z M257.7,5.7
			c0.4,0,0.8-0.3,0.8-0.8V3.5c0-0.4-0.3-0.8-0.8-0.8h-1.5c-0.4,0-0.8,0.3-0.8,0.8V5c0,0.4,0.3,0.8,0.8,0.8H257.7z M244.9,15.5
			c0-1.2,1-2.2,2.2-2.2h1.5c1.2,0,2.2,1,2.2,2.2V17c0,1.2-1,2.2-2.2,2.2h-1.5c-1.2,0-2.2-1-2.2-2.2V15.5z M247.2,14.7
			c-0.4,0-0.8,0.3-0.8,0.8V17c0,0.4,0.3,0.8,0.8,0.8h1.5c0.4,0,0.8-0.3,0.8-0.8v-1.5c0-0.4-0.3-0.8-0.8-0.8H247.2z M253.9,15.5
			c0-1.2,1-2.2,2.2-2.2h1.5c1.2,0,2.2,1,2.2,2.2V17c0,1.2-1,2.2-2.2,2.2h-1.5c-1.2,0-2.2-1-2.2-2.2V15.5z M256.2,14.7
			c-0.4,0-0.8,0.3-0.8,0.8V17c0,0.4,0.3,0.8,0.8,0.8h1.5c0.4,0,0.8-0.3,0.8-0.8v-1.5c0-0.4-0.3-0.8-0.8-0.8H256.2z M262.9,15.5
			c0-1.2,1-2.2,2.2-2.2h1.5c1.2,0,2.2,1,2.2,2.2V17c0,1.2-1,2.2-2.2,2.2h-1.5c-1.2,0-2.2-1-2.2-2.2V15.5z M265.2,14.7
			c-0.4,0-0.8,0.3-0.8,0.8V17c0,0.4,0.3,0.8,0.8,0.8h1.5c0.4,0,0.8-0.3,0.8-0.8v-1.5c0-0.4-0.3-0.8-0.8-0.8H265.2z"/>
	</g>
	<g>
		<g>
			<text transform="matrix(1 0 0 1 409.5729 50.0331)" class="st0 st1 st2">探索</text>
		</g>
		<g>
			<text transform="matrix(1 0 0 1 409.5729 76.0331)" class="st3"><tspan x="0" y="0" class="st0 st1 st2">探索市</tspan><tspan x="48" y="0" class="st0 st4 st2">场</tspan><tspan x="64" y="0" class="st0 st1 st2">潜力及机会</tspan></text>
		</g>
		<polygon class="st0" points="493.5,11.8 493.5,12.8 564.5,12.8 564.5,102.3 399,102.3 399,12.8 416.5,12.8 416.5,11.8 398,11.8 
			398,103.3 565.5,103.3 565.5,11.8 		"/>
		<path class="st0" d="M447.3,2.4c0-1.3,1.1-2.4,2.4-2.4h1.6c1.3,0,2.4,1.1,2.4,2.4v4h3.2v-4c0-1.3,1.1-2.4,2.4-2.4h1.6
			c1.3,0,2.4,1.1,2.4,2.4v3.8c0,0.3,0.2,0.6,0.4,0.7l1.4,0.7c0.8,0.4,1.3,1.2,1.3,2.2v11.8c0,1.3-1.1,2.4-2.4,2.4l0,0h-4.8
			c-1.3,0-2.4-1.1-2.4-2.4l0,0v-4.8c0-0.2,0.1-0.4,0.2-0.6l1.4-1.4v-1.3c0-0.4-0.4-0.8-0.8-0.8h-4.8c-0.4,0-0.8,0.4-0.8,0.8v1.3
			l1.4,1.4c0.1,0.1,0.2,0.4,0.2,0.6v4.8c0,1.3-1.1,2.4-2.4,2.4l0,0h-4.8c-1.3,0-2.4-1.1-2.4-2.4l0,0V9.8c0-0.9,0.5-1.7,1.3-2.2
			l1.4-0.7c0.3-0.1,0.4-0.4,0.4-0.7L447.3,2.4L447.3,2.4z M449.7,1.6c-0.4,0-0.8,0.4-0.8,0.8v0.8h3.2V2.4c0-0.4-0.4-0.8-0.8-0.8
			C451.3,1.6,449.7,1.6,449.7,1.6z M452.1,4.8h-3.2v1.4c0,0.9-0.5,1.7-1.3,2.2l-1.4,0.7c-0.3,0.1-0.4,0.4-0.4,0.7v9.4h6.4v-2.1
			l-1.4-1.4c-0.1-0.1-0.2-0.4-0.2-0.6v-1.6c0-1.3,1.1-2.4,2.4-2.4h4.8c1.3,0,2.4,1.1,2.4,2.4v1.6c0,0.2-0.1,0.4-0.2,0.6l-1.4,1.4
			v2.1h6.4V9.8c0-0.3-0.2-0.6-0.4-0.7L463,8.3c-0.8-0.4-1.3-1.2-1.3-2.2V4.8h-3.2v2.4c0,0.4-0.4,0.8-0.8,0.8h-4.8
			c-0.4,0-0.8-0.4-0.8-0.8V4.8z M458.5,3.2h3.2V2.4c0-0.4-0.4-0.8-0.8-0.8h-1.6c-0.4,0-0.8,0.4-0.8,0.8L458.5,3.2L458.5,3.2z
			 M464.9,20.8h-6.4v0.8c0,0.4,0.4,0.8,0.8,0.8h4.8c0.4,0,0.8-0.4,0.8-0.8L464.9,20.8L464.9,20.8z M452.1,20.8h-6.4v0.8
			c0,0.4,0.4,0.8,0.8,0.8h4.8c0.4,0,0.8-0.4,0.8-0.8L452.1,20.8L452.1,20.8z"/>
	</g>
	<g>
		<g>
			<text transform="matrix(1 0 0 1 11.5729 196.0331)" class="st3"><tspan x="0" y="0" class="st0 st4 st2">执</tspan><tspan x="16" y="0" class="st0 st1 st2">行</tspan></text>
		</g>
		<g>
			<text transform="matrix(1 0 0 1 11.5729 222.0331)" class="st3"><tspan x="0" y="0" class="st0 st4 st2">贯</tspan><tspan x="16" y="0" class="st0 st1 st2">彻</tspan><tspan x="32" y="0" class="st0 st4 st2">执</tspan><tspan x="48" y="0" class="st0 st1 st2">行客户的要求</tspan></text>
		</g>
		<polygon class="st0" points="95.5,157.8 95.5,158.8 166.5,158.8 166.5,248.3 1,248.3 1,158.8 18.5,158.8 18.5,157.8 0,157.8 
			0,249.3 167.5,249.3 167.5,157.8 		"/>
		<path class="st0" d="M63.5,156.4h6.1c0.2,0,0.4,0.2,0.4,0.4c0,0.1,0,0.2-0.1,0.2l-3.1,3.7c-0.1,0.2-0.4,0.2-0.6,0.1
			c0,0,0,0-0.1-0.1l-3.1-3.7c-0.1-0.2-0.1-0.4,0-0.6C63.3,156.4,63.4,156.4,63.5,156.4z M46.4,159.5h6.1c0.2,0,0.4-0.2,0.4-0.4
			c0-0.1,0-0.2-0.1-0.2l-3.1-3.7c-0.1-0.2-0.4-0.2-0.5-0.1c0,0,0,0,0,0.1l-3.1,3.7c-0.1,0.2-0.1,0.4,0,0.6
			C46.2,159.4,46.3,159.5,46.4,159.5z"/>
		<path class="st5" d="M58,150.1c-2.4,0-4.6,1.1-6,2.8c-0.3,0.3-0.8,0.4-1.1,0.1s-0.4-0.8-0.1-1.1c0,0,0,0,0,0
			c3.3-4,9.2-4.5,13.1-1.2c1.7,1.4,2.9,3.4,3.3,5.6h-1.6C64.9,152.8,61.7,150.1,58,150.1z M50.4,159.5c0.9,4.2,5,6.9,9.2,6.1
			c1.7-0.4,3.3-1.3,4.4-2.7c0.3-0.3,0.8-0.4,1.1-0.1s0.4,0.8,0.1,1.1c0,0,0,0,0,0c-3.3,4-9.2,4.5-13.1,1.2c-1.7-1.4-2.9-3.4-3.3-5.6
			L50.4,159.5L50.4,159.5z"/>
	</g>
	<g>
		<g>
			<text transform="matrix(1 0 0 1 210.5729 196.0331)" class="st0 st4 st2">监测</text>
		</g>
		<g>
			<text transform="matrix(1 0 0 1 210.5729 222.0331)" class="st3"><tspan x="0" y="0" class="st0 st4 st2">监测</tspan><tspan x="32" y="0" class="st0 st1 st2">及</tspan><tspan x="48" y="0" class="st0 st4 st2">评</tspan><tspan x="64" y="0" class="st0 st1 st2">估市</tspan><tspan x="96" y="0" class="st0 st4 st2">场</tspan><tspan x="112" y="0" class="st0 st1 st2">变化</tspan></text>
		</g>
		<polygon class="st0" points="294.5,157.8 294.5,158.8 365.5,158.8 365.5,248.3 200,248.3 200,158.8 217.5,158.8 217.5,157.8 
			199,157.8 199,249.3 366.5,249.3 366.5,157.8 		"/>
		<path class="st0" d="M267,147.2h-21.3c-0.7,0-1.3,0.6-1.3,1.3v18.7c0,0.7,0.6,1.3,1.3,1.3H267c0.7,0,1.3-0.6,1.3-1.3v-18.7
			C268.3,147.8,267.8,147.2,267,147.2z M266.3,166.5h-20v-7.3h6.6l1.1,3.3c0.1,0.4,0.5,0.7,0.9,0.7h0c0.4,0,0.8-0.3,0.9-0.7l1.8-4.9
			l0.4,0.9c0.1,0.4,0.5,0.6,0.9,0.6h4.7c0.4,0,0.7-0.3,0.7-0.7v-0.7c0-0.4-0.3-0.7-0.7-0.7h-4l-1.1-2.7c-0.1-0.4-0.6-0.6-0.9-0.6
			c-0.4,0-0.8,0.3-0.9,0.7l-1.7,4.6l-0.4-1.3c-0.1-0.4-0.5-0.7-0.9-0.7h-7.3v-8h20L266.3,166.5L266.3,166.5z"/>
	</g>
</g>
</svg>
