<?xml version="1.0" encoding="utf-8"?>
<!-- Generator: Adobe Illustrator 26.0.2, SVG Export Plug-In . SVG Version: 6.00 Build 0)  -->
<svg version="1.1" id="圖層_1" xmlns="http://www.w3.org/2000/svg" xmlns:xlink="http://www.w3.org/1999/xlink" x="0px" y="0px"
	 viewBox="0 0 565.5 249.28" style="enable-background:new 0 0 565.5 249.28;" xml:space="preserve">
<style type="text/css">
	.st0{fill:#FFFFFF;}
	.st1{font-family:'NotoSansHK-Regular-83pv-RKSJ-H';}
	.st2{font-size:16px;}
	.st3{fill-rule:evenodd;clip-rule:evenodd;fill:#FFFFFF;}
</style>
<g>
	<g>
		<g>
			<text transform="matrix(1 0 0 1 11.5729 50.0331)" class="st0 st1 st2">聆聽</text>
		</g>
		<g>
			<text transform="matrix(1 0 0 1 11.5729 76.0331)" class="st0 st1 st2">聆聽客戶需求</text>
		</g>
		<polygon class="st0" points="95.5,11.78 95.5,12.78 166.5,12.78 166.5,102.28 1,102.28 1,12.78 18.5,12.78 18.5,11.78 0,11.78 
			0,103.28 167.5,103.28 167.5,11.78 		"/>
		<path class="st0" d="M57.79,1.74c-3.73,0-6.75,3.02-6.75,6.75v10.57c0,2.03,1.65,3.68,3.68,3.68c1.53,0,2.91-0.95,3.45-2.39
			l0.77-2.04c0.3-0.79,0.71-1.53,1.22-2.19l3.01-3.87c2.21-2.84,1.69-6.93-1.14-9.13c-1.14-0.89-2.55-1.37-4-1.37H57.79z
			 M49.54,8.49c0-4.56,3.69-8.25,8.25-8.25h0.24c4.42,0,8.01,3.59,8.01,8.01c0,1.78-0.59,3.51-1.69,4.92l-3.01,3.87
			c-0.42,0.54-0.76,1.15-1,1.8l-0.76,2.04c-1,2.68-3.99,4.04-6.67,3.04c-2.02-0.76-3.36-2.69-3.36-4.85V8.49z M57.79,6.24
			c-1.24,0-2.25,1.01-2.25,2.25v4.04c0.17-0.09,0.33-0.18,0.5-0.29c0.49-0.31,0.87-0.66,1.08-1.09c0.19-0.37,0.64-0.52,1.01-0.34
			c0.37,0.19,0.52,0.64,0.34,1.01l0,0c-0.38,0.77-1.01,1.3-1.62,1.68c-0.42,0.26-0.85,0.49-1.3,0.7v3.28c0,0.41-0.34,0.75-0.75,0.75
			s-0.75-0.34-0.75-0.75v-9c0-2.07,1.68-3.75,3.75-3.75c2.07,0,3.75,1.68,3.75,3.75v0.75c0,0.41-0.34,0.75-0.75,0.75
			c-0.41,0-0.75-0.34-0.75-0.75V8.49C60.04,7.24,59.03,6.24,57.79,6.24z"/>
	</g>
	<g>
		<g>
			<text transform="matrix(1 0 0 1 210.5729 50.0331)" class="st0 st1 st2">開發</text>
		</g>
		<g>
			<text transform="matrix(1 0 0 1 210.5729 76.0331)" class="st0 st1 st2">開發新的策略及產品</text>
		</g>
		<polygon class="st0" points="294.5,11.78 294.5,12.78 365.5,12.78 365.5,102.28 200,102.28 200,12.78 217.5,12.78 217.5,11.78 
			199,11.78 199,103.28 366.5,103.28 366.5,11.78 		"/>
		<path class="st3" d="M253.91,3.48c0-1.24,1.01-2.25,2.25-2.25h1.5c1.24,0,2.25,1.01,2.25,2.25v1.5c0,1.24-1.01,2.25-2.25,2.25v1.5
			h8.25c0.41,0,0.75,0.34,0.75,0.75v1.5c0,0.41-0.34,0.75-0.75,0.75s-0.75-0.34-0.75-0.75v-0.75h-7.5v0.75
			c0,0.41-0.34,0.75-0.75,0.75s-0.75-0.34-0.75-0.75v-0.75h-7.5v0.75c0,0.41-0.34,0.75-0.75,0.75c-0.41,0-0.75-0.34-0.75-0.75v-1.5
			c0-0.41,0.34-0.75,0.75-0.75h8.25v-1.5c-1.24,0-2.25-1.01-2.25-2.25V3.48z M257.66,5.73c0.41,0,0.75-0.34,0.75-0.75v-1.5
			c0-0.41-0.34-0.75-0.75-0.75h-1.5c-0.41,0-0.75,0.34-0.75,0.75v1.5c0,0.41,0.34,0.75,0.75,0.75H257.66z M244.91,15.48
			c0-1.24,1.01-2.25,2.25-2.25h1.5c1.24,0,2.25,1.01,2.25,2.25v1.5c0,1.24-1.01,2.25-2.25,2.25h-1.5c-1.24,0-2.25-1.01-2.25-2.25
			V15.48z M247.16,14.73c-0.41,0-0.75,0.34-0.75,0.75v1.5c0,0.41,0.34,0.75,0.75,0.75h1.5c0.41,0,0.75-0.34,0.75-0.75v-1.5
			c0-0.41-0.34-0.75-0.75-0.75H247.16z M253.91,15.48c0-1.24,1.01-2.25,2.25-2.25h1.5c1.24,0,2.25,1.01,2.25,2.25v1.5
			c0,1.24-1.01,2.25-2.25,2.25h-1.5c-1.24,0-2.25-1.01-2.25-2.25V15.48z M256.16,14.73c-0.41,0-0.75,0.34-0.75,0.75v1.5
			c0,0.41,0.34,0.75,0.75,0.75h1.5c0.41,0,0.75-0.34,0.75-0.75v-1.5c0-0.41-0.34-0.75-0.75-0.75H256.16z M262.91,15.48
			c0-1.24,1.01-2.25,2.25-2.25h1.5c1.24,0,2.25,1.01,2.25,2.25v1.5c0,1.24-1.01,2.25-2.25,2.25h-1.5c-1.24,0-2.25-1.01-2.25-2.25
			V15.48z M265.16,14.73c-0.41,0-0.75,0.34-0.75,0.75v1.5c0,0.41,0.34,0.75,0.75,0.75h1.5c0.41,0,0.75-0.34,0.75-0.75v-1.5
			c0-0.41-0.34-0.75-0.75-0.75H265.16z"/>
	</g>
	<g>
		<g>
			<text transform="matrix(1 0 0 1 409.5729 50.0331)" class="st0 st1 st2">探索</text>
		</g>
		<g>
			<text transform="matrix(1 0 0 1 409.5729 76.0331)" class="st0 st1 st2">探索市場潛力及機會</text>
		</g>
		<polygon class="st0" points="493.5,11.78 493.5,12.78 564.5,12.78 564.5,102.28 399,102.28 399,12.78 416.5,12.78 416.5,11.78 
			398,11.78 398,103.28 565.5,103.28 565.5,11.78 		"/>
		<path class="st0" d="M447.32,2.4c0-1.33,1.07-2.4,2.4-2.4h1.6c1.33,0,2.4,1.07,2.4,2.4v4h3.2v-4c0-1.33,1.07-2.4,2.4-2.4h1.6
			c1.33,0,2.4,1.07,2.4,2.4v3.81c0,0.3,0.17,0.58,0.44,0.72l1.43,0.72c0.81,0.41,1.33,1.24,1.33,2.15V21.6c0,1.33-1.07,2.4-2.4,2.4
			l0,0h-4.8c-1.33,0-2.4-1.07-2.4-2.4l0,0v-4.8c0-0.21,0.08-0.42,0.23-0.57l1.37-1.36V13.6c0-0.44-0.36-0.8-0.8-0.8h-4.8
			c-0.44,0-0.8,0.36-0.8,0.8v1.27l1.37,1.36c0.15,0.15,0.23,0.35,0.23,0.57v4.8c0,1.33-1.07,2.4-2.4,2.4l0,0h-4.8
			c-1.33,0-2.4-1.07-2.4-2.4l0,0V9.79c0-0.91,0.51-1.74,1.33-2.15l1.43-0.72c0.27-0.14,0.44-0.41,0.44-0.72V2.4z M449.72,1.6
			c-0.44,0-0.8,0.36-0.8,0.8v0.8h3.2V2.4c0-0.44-0.36-0.8-0.8-0.8H449.72z M452.12,4.8h-3.2v1.41c0,0.91-0.51,1.74-1.33,2.15
			l-1.43,0.72c-0.27,0.14-0.44,0.41-0.44,0.72v9.41h6.4v-2.07l-1.37-1.36c-0.15-0.15-0.23-0.35-0.23-0.57v-1.6
			c0-1.33,1.07-2.4,2.4-2.4h4.8c1.33,0,2.4,1.07,2.4,2.4v1.6c0,0.21-0.08,0.42-0.23,0.57l-1.37,1.36v2.07h6.4V9.79
			c0-0.3-0.17-0.58-0.44-0.72l-1.43-0.72c-0.81-0.41-1.33-1.24-1.33-2.15V4.8h-3.2v2.4c0,0.44-0.36,0.8-0.8,0.8h-4.8
			c-0.44,0-0.8-0.36-0.8-0.8V4.8z M458.52,3.2h3.2V2.4c0-0.44-0.36-0.8-0.8-0.8h-1.6c-0.44,0-0.8,0.36-0.8,0.8V3.2z M464.92,20.8
			h-6.4v0.8c0,0.44,0.36,0.8,0.8,0.8h4.8c0.44,0,0.8-0.36,0.8-0.8V20.8z M452.12,20.8h-6.4v0.8c0,0.44,0.36,0.8,0.8,0.8h4.8
			c0.44,0,0.8-0.36,0.8-0.8V20.8z"/>
	</g>
	<g>
		<g>
			<text transform="matrix(1 0 0 1 11.5729 196.0331)" class="st0 st1 st2">執行</text>
		</g>
		<g>
			<text transform="matrix(1 0 0 1 11.5729 222.0331)" class="st0 st1 st2">貫徹執行客戶的要求</text>
		</g>
		<polygon class="st0" points="95.5,157.78 95.5,158.78 166.5,158.78 166.5,248.28 1,248.28 1,158.78 18.5,158.78 18.5,157.78 
			0,157.78 0,249.28 167.5,249.28 167.5,157.78 		"/>
		<path class="st0" d="M63.49,156.37h6.12c0.21,0,0.39,0.17,0.39,0.39c0,0.09-0.03,0.18-0.09,0.25l-3.06,3.67
			c-0.14,0.16-0.38,0.19-0.55,0.05c-0.02-0.02-0.03-0.03-0.05-0.05l-3.06-3.67c-0.14-0.16-0.12-0.41,0.05-0.55
			C63.31,156.4,63.4,156.37,63.49,156.37z M46.38,159.48h6.12c0.21,0,0.39-0.17,0.39-0.39c0-0.09-0.03-0.18-0.09-0.25l-3.06-3.67
			c-0.14-0.16-0.38-0.19-0.55-0.05c-0.02,0.01-0.03,0.03-0.05,0.05l-3.06,3.67c-0.14,0.16-0.12,0.41,0.05,0.55
			C46.2,159.45,46.29,159.48,46.38,159.48z"/>
		<path class="st3" d="M57.99,150.15c-2.41,0-4.57,1.1-6,2.83c-0.26,0.34-0.75,0.4-1.09,0.14c-0.34-0.26-0.4-0.75-0.14-1.09
			c0.01-0.01,0.02-0.03,0.03-0.04c3.28-3.97,9.17-4.54,13.14-1.25c1.73,1.43,2.88,3.43,3.26,5.64h-1.58
			C64.87,152.75,61.69,150.15,57.99,150.15z M50.37,159.48c0.86,4.21,4.97,6.92,9.18,6.06c1.74-0.36,3.31-1.3,4.44-2.67
			c0.26-0.34,0.75-0.4,1.09-0.14s0.4,0.75,0.14,1.09c-0.01,0.01-0.02,0.03-0.03,0.04c-3.28,3.97-9.17,4.54-13.14,1.25
			c-1.73-1.43-2.88-3.43-3.26-5.64H50.37z"/>
	</g>
	<g>
		<g>
			<text transform="matrix(1 0 0 1 210.5729 196.0331)" class="st0 st1 st2">監測</text>
		</g>
		<g>
			<text transform="matrix(1 0 0 1 210.5729 222.0331)" class="st0 st1 st2">監測及評估市場變化</text>
		</g>
		<polygon class="st0" points="294.5,157.78 294.5,158.78 365.5,158.78 365.5,248.28 200,248.28 200,158.78 217.5,158.78 
			217.5,157.78 199,157.78 199,249.28 366.5,249.28 366.5,157.78 		"/>
		<path class="st0" d="M267.01,147.17h-21.33c-0.74,0-1.33,0.6-1.33,1.33v18.67c0,0.74,0.6,1.33,1.33,1.33h21.33
			c0.74,0,1.33-0.6,1.33-1.33V148.5C268.34,147.77,267.75,147.17,267.01,147.17z M266.34,166.5h-20v-7.33h6.61l1.11,3.32
			c0.14,0.4,0.51,0.68,0.94,0.68h0.01c0.42,0,0.8-0.26,0.94-0.66l1.77-4.87l0.36,0.9c0.15,0.38,0.52,0.63,0.93,0.63h4.67
			c0.37,0,0.67-0.3,0.67-0.67v-0.67c0-0.37-0.3-0.67-0.67-0.67h-3.99l-1.08-2.7c-0.15-0.38-0.56-0.64-0.94-0.63
			c-0.42,0.01-0.78,0.27-0.92,0.66l-1.68,4.64l-0.43-1.28c-0.14-0.41-0.52-0.68-0.95-0.68h-7.33v-8h20V166.5z"/>
	</g>
</g>
</svg>
